<svg xmlns="http://www.w3.org/2000/svg" width="87" height="87" viewBox="0 0 87 87">
  <g id="noun_gluten-free_2387661" transform="translate(-14 -14)">
    <g id="Group_9" data-name="Group 9" transform="translate(14 14)">
      <path id="Path_24" data-name="Path 24" d="M63.344,26.857Q58,31.92,58,38.167t5.344,11.31q5.345-5.063,5.345-11.31T63.344,26.857Z" transform="translate(-19.72 -15.671)" fill="#9f8221"/>
      <path id="Path_25" data-name="Path 25" d="M68.359,50.645q-4.269,4.267-3.329,12.124A16.585,16.585,0,0,0,80.484,47.315Q72.627,46.378,68.359,50.645Z" transform="translate(-20.612 -18.309)" fill="#9f8221"/>
      <path id="Path_26" data-name="Path 26" d="M68.359,67.5Q64.091,71.77,65.03,79.626A16.585,16.585,0,0,0,80.484,64.172Q72.627,63.235,68.359,67.5Z" transform="translate(-20.612 -20.5)" fill="#9f8221"/>
      <path id="Path_27" data-name="Path 27" d="M68.359,84.074Q64.091,88.341,65.03,96.2A16.585,16.585,0,0,0,80.484,80.743Q72.627,79.806,68.359,84.074Z" transform="translate(-20.612 -22.655)" fill="#9f8221"/>
      <path id="Path_28" data-name="Path 28" d="M45.625,47.315A16.585,16.585,0,0,0,61.079,62.769q.937-7.857-3.33-12.124T45.625,47.315Z" transform="translate(-18.111 -18.309)" fill="#9f8221"/>
      <path id="Path_29" data-name="Path 29" d="M45.625,64.172A16.585,16.585,0,0,0,61.079,79.626q.937-7.857-3.33-12.124T45.625,64.172Z" transform="translate(-18.111 -20.5)" fill="#9f8221"/>
      <path id="Path_30" data-name="Path 30" d="M45.625,80.743A16.585,16.585,0,0,0,61.079,96.2q.937-7.857-3.33-12.124T45.625,80.743Z" transform="translate(-18.111 -22.655)" fill="#9f8221"/>
      <path id="Path_31" data-name="Path 31" d="M57.5,14A43.5,43.5,0,1,0,101,57.5,43.5,43.5,0,0,0,57.5,14Zm0,82.028a38.367,38.367,0,0,1-24.879-9.119l8.062-8.064a19.928,19.928,0,0,1-1.53-5.5L29.034,83.463A38.527,38.527,0,0,1,83.463,29.034L72.126,40.371q1,.04,2.041.165l2.391.285-.2,2.353L86.909,32.62A38.52,38.52,0,0,1,57.5,96.028Z" transform="translate(-14 -14)" fill="#9f8221"/>
    </g>
  </g>
</svg>
