<svg xmlns="http://www.w3.org/2000/svg" width="79.364" height="90.001" viewBox="0 0 79.364 90.001">
  <g id="noun_leaf_3484614" transform="translate(-10.318 -5)">
    <path id="Path_1" data-name="Path 1" d="M89.288,5C82,15.706,60.566,26.52,37.838,31.786,18.106,36.358,15.505,53.543,20.6,66.882c1.154-1.525,2.344-3.024,3.615-4.463A67.315,67.315,0,0,1,35.351,52.326c4.038-2.935,8.126-5.577,12.294-8.238,5.311-3.385,10.9-6.318,16.267-9.428A72.553,72.553,0,0,0,78.578,23.307c.366-.353.813-.48,1.012-.287s.075.638-.281,1.009c-.052.055-.106.109-.157.164A72.41,72.41,0,0,1,65,35.836c-5.266,3.274-10.764,6.379-15.967,9.927C44.948,48.552,40.944,51.319,37,54.377A67.312,67.312,0,0,0,26.183,64.81,89.778,89.778,0,0,0,17.7,77.191c-1.277,2.146-2.406,4.357-3.577,6.552-1.081,2.229-2.232,4.437-3.234,6.7-1.072,2.337-.533,3.857.736,4.387s2.749-.114,3.7-2.434c.9-2.257,1.926-4.437,2.894-6.657,1.05-2.17,2.063-4.366,3.21-6.478,1.115-2.114,2.291-4.191,3.547-6.212,5.333,1.315,23.165,5.007,34.816-1.07C75.472,63.8,92.5,40.181,89.288,5Z" fill="#5cb618"/>
  </g>
</svg>
