<svg xmlns="http://www.w3.org/2000/svg" width="96" height="96" viewBox="0 0 96 96">
  <g id="Group_8" data-name="Group 8" transform="translate(-173 -464)">
    <g id="Ellipse_1" data-name="Ellipse 1" transform="translate(173 464)" fill="none" stroke="#1880b6" stroke-width="8">
      <circle cx="48" cy="48" r="48" stroke="none"/>
      <circle cx="48" cy="48" r="44" fill="none"/>
    </g>
    <path id="Path_8" data-name="Path 8" d="M15.631-5.017a7.3,7.3,0,0,1-3.1.667,5.5,5.5,0,0,1-5.742-5.8,5.465,5.465,0,0,1,5.8-5.8,6.332,6.332,0,0,1,4.93,2.262l3.654-3.306c-2-2.407-5.075-3.712-8.874-3.712C5.713-20.706.986-16.327.986-10.15S5.713.406,12.18.406a15.142,15.142,0,0,0,8.526-2.581v-8.41H15.631ZM47.966,0l-.058-20.3H43.181L36.221-8.584,29.087-20.3H24.36V0h5.307V-10.469L34.858-2H37.41l5.22-8.758L42.688,0Zm14.3.406c6.5,0,11.281-4.466,11.281-10.556S68.759-20.706,62.263-20.706,50.982-16.24,50.982-10.15,55.767.406,62.263.406Zm0-4.756a5.436,5.436,0,0,1-5.481-5.8,5.436,5.436,0,0,1,5.481-5.8,5.436,5.436,0,0,1,5.481,5.8A5.436,5.436,0,0,1,62.263-4.35Z" transform="translate(184 523)" fill="#1880b6"/>
    <line id="Line_1" data-name="Line 1" x2="20" y2="20" transform="translate(188.5 479.5)" fill="none" stroke="#1880b6" stroke-width="8"/>
    <line id="Line_2" data-name="Line 2" x2="20" y2="20" transform="translate(234.5 524.5)" fill="none" stroke="#1880b6" stroke-width="8"/>
  </g>
</svg>
