<svg xmlns="http://www.w3.org/2000/svg" width="95" height="95" viewBox="0 0 95 95">
  <g id="noun_vegan_3097535" transform="translate(22.5 -23.5)">
    <g id="Group_7" data-name="Group 7" transform="translate(-25 21)">
      <g id="Group_4" data-name="Group 4">
        <path id="Path_6" data-name="Path 6" d="M50,2.5A47.5,47.5,0,1,0,97.5,50,47.543,47.543,0,0,0,50,2.5ZM80.8,75.4,66,60.7h0a40.73,40.73,0,0,1-8.2,2.5L75.4,80.8A39.837,39.837,0,0,1,10.1,50a40.225,40.225,0,0,1,9.2-25.4L36.9,42.2A40.73,40.73,0,0,1,39.4,34L24.6,19.2A39.911,39.911,0,0,1,90,50,40.806,40.806,0,0,1,80.8,75.4Z" fill="#735943"/>
      </g>
      <g id="Group_5" data-name="Group 5">
        <path id="Path_7" data-name="Path 7" d="M52,24c-5.1,5.1-11.4,16.7-10.2,25.1l-6.6,6.6a8.207,8.207,0,0,0-10.4,1,8.088,8.088,0,0,0,0,11.5,8.414,8.414,0,0,0,4.6,2.3,7.528,7.528,0,0,0,2.3,4.6,8.088,8.088,0,0,0,11.5,0,8.324,8.324,0,0,0,1-10.4l6.6-6.6c8.5,1.2,20-5.1,25.1-10.2,3.5-3.5,1-11.3-5.8-18.2C63.3,23,55.5,20.5,52,24ZM39.9,63.3a2.271,2.271,0,0,0-.6,1.6,2.127,2.127,0,0,0,.7,1.5l.3.2a4.031,4.031,0,1,1-6.8,2.3,2.208,2.208,0,0,0-2.4-2.4,3.858,3.858,0,0,1-3.4-1.1,4.031,4.031,0,0,1,5.7-5.7h0l.2.2a2.127,2.127,0,0,0,1.5.7,2.452,2.452,0,0,0,1.6-.6l6.6-6.6a7.945,7.945,0,0,0,1.4,1.8,10.991,10.991,0,0,0,1.8,1.4ZM73,45.1c-1.3,1.3-6.9-.3-12.3-5.8-5.4-5.4-7.1-11-5.8-12.3s6.9.3,12.3,5.8S74.3,43.8,73,45.1Z" fill="#735943"/>
      </g>
      <g id="Group_6" data-name="Group 6">
        <ellipse id="Ellipse_2" data-name="Ellipse 2" cx="1.7" cy="6.3" rx="1.7" ry="6.3" transform="translate(58.325 32.742) rotate(-45)" fill="#735943"/>
      </g>
    </g>
  </g>
</svg>
